<?xml version="1.0" standalone="no"?>
<!DOCTYPE svg PUBLIC "-//W3C//DTD SVG 20010904//EN"
 "http://www.w3.org/TR/2001/REC-SVG-20010904/DTD/svg10.dtd">
<svg version="1.0" xmlns="http://www.w3.org/2000/svg"
 width="700.000000pt" height="700.000000pt" viewBox="0 0 700.000000 700.000000"
 preserveAspectRatio="xMidYMid meet">
<metadata>
Created by potrace 1.11, written by Peter Selinger 2001-2013
</metadata>
<g transform="translate(0.000000,700.000000) scale(0.100000,-0.100000)"
fill="#000000" stroke="none">
<path d="M2310 6213 c-293 -299 -491 -664 -557 -1028 -25 -137 -23 -371 5
-512 68 -345 247 -662 551 -978 l86 -90 5 -1090 5 -1090 25 -50 c51 -103 161
-179 295 -204 81 -15 1209 -15 1290 0 134 25 244 101 295 204 l25 50 5 1090 5
1090 86 90 c303 315 483 635 551 978 28 143 30 375 4 514 -66 364 -263 727
-556 1026 -107 109 -128 120 -165 93 -18 -13 -18 -35 -14 -537 2 -288 4 -595
4 -682 l0 -158 -425 -190 c-234 -104 -435 -192 -446 -195 -15 -4 -160 56 -455
187 -239 106 -437 195 -441 198 -4 3 -3 305 1 671 5 430 4 672 -2 685 -29 60
-59 48 -177 -72z m66 -716 c-6 -590 -6 -624 11 -639 10 -8 90 -47 178 -86 88
-39 297 -131 464 -206 216 -97 314 -136 341 -136 27 0 136 44 386 156 192 85
401 179 464 207 63 28 123 57 133 66 17 14 17 48 11 640 l-7 626 33 -30 c43
-40 155 -182 218 -276 211 -315 313 -676 282 -991 -38 -385 -207 -711 -558
-1079 l-102 -107 0 -1078 c0 -760 -3 -1091 -11 -1119 -15 -55 -80 -117 -154
-146 l-60 -24 -635 0 -635 0 -60 24 c-74 29 -139 91 -154 146 -8 28 -11 359
-11 1119 l0 1078 -104 109 c-308 321 -477 619 -542 954 -25 128 -23 357 4 491
53 264 189 545 377 779 50 63 126 145 134 145 2 0 1 -280 -3 -623z"/>
<path d="M2924 3956 c-17 -8 -52 -39 -78 -71 -53 -66 -59 -103 -23 -152 26
-36 449 -432 480 -450 12 -7 37 -12 56 -13 29 0 44 10 98 63 58 59 63 67 63
108 l0 43 68 -65 c140 -136 158 -149 202 -149 35 0 48 7 89 45 26 24 56 60 66
79 36 67 23 86 -241 331 -130 121 -249 226 -266 233 -45 19 -79 7 -136 -51
-55 -57 -76 -98 -66 -131 l7 -21 -24 20 c-13 11 -59 53 -102 93 -68 64 -127
103 -154 102 -4 -1 -22 -7 -39 -14z m271 -292 c110 -102 204 -189 209 -194 4
-5 -9 -27 -31 -50 l-39 -42 -212 198 -213 198 38 38 c20 21 40 38 43 38 3 0
95 -84 205 -186z m441 -5 c112 -105 204 -194 204 -198 0 -4 -17 -23 -37 -43
l-38 -37 -135 126 c-74 70 -168 157 -208 195 l-73 69 33 39 c18 22 37 40 42
40 4 0 100 -86 212 -191z"/>
<path d="M3231 2236 c-70 -23 -147 -82 -190 -147 -96 -144 -78 -343 44 -464
173 -173 469 -131 583 83 100 187 23 423 -166 510 -70 32 -201 40 -271 18z
m219 -117 c96 -43 150 -128 150 -237 0 -77 -26 -137 -81 -186 -51 -47 -100
-66 -167 -66 -75 0 -125 17 -173 59 -140 119 -110 350 56 427 65 31 152 32
215 3z"/>
</g>
</svg>
