<?xml version="1.0" encoding="iso-8859-1"?>
<!-- Generator: Adobe Illustrator 19.0.0, SVG Export Plug-In . SVG Version: 6.00 Build 0)  -->
<svg version="1.1" id="Layer_1" xmlns="http://www.w3.org/2000/svg" xmlns:xlink="http://www.w3.org/1999/xlink" x="0px" y="0px"
	 viewBox="0 0 512 512" style="enable-background:new 0 0 512 512;" xml:space="preserve">
<g>
	<g>
		<path d="M509.827,252.639L390.188,41.501c-2.969-5.24-8.527-8.479-14.55-8.479H136.362c-6.023,0-11.58,3.239-14.549,8.479
			L2.174,252.639c-2.959,5.221-2.893,11.627,0.172,16.786l119.639,201.371c3.014,5.073,8.478,8.182,14.378,8.182h239.277
			c5.9,0,11.363-3.109,14.378-8.182l119.639-201.371C512.72,264.265,512.785,257.859,509.827,252.639z M256,377.944
			c-64.549,0-117.063-52.515-117.063-117.064S191.451,143.817,256,143.817s117.064,52.515,117.064,117.063
			S320.55,377.944,256,377.944z"/>
	</g>
</g>
<g>
</g>
<g>
</g>
<g>
</g>
<g>
</g>
<g>
</g>
<g>
</g>
<g>
</g>
<g>
</g>
<g>
</g>
<g>
</g>
<g>
</g>
<g>
</g>
<g>
</g>
<g>
</g>
<g>
</g>
</svg>
