<?xml version="1.0" encoding="utf-8"?>
<!-- Svg Vector Icons : http://www.onlinewebfonts.com/icon -->
<!DOCTYPE svg PUBLIC "-//W3C//DTD SVG 1.1//EN" "http://www.w3.org/Graphics/SVG/1.1/DTD/svg11.dtd">
<svg version="1.1" xmlns="http://www.w3.org/2000/svg" xmlns:xlink="http://www.w3.org/1999/xlink" x="0px" y="0px" viewBox="0 0 1000 1000" enable-background="new 0 0 1000 1000" xml:space="preserve">
<metadata> Svg Vector Icons : http://www.onlinewebfonts.com/icon </metadata>
<g><g transform="translate(0.000000,511.000000) scale(0.100000,-0.100000)"><path d="M1988.6,5010.3c-38.9-4.1-157.6-28.7-263.9-51.2c-198.5-45-288.5-98.2-288.5-173.9c0-20.5,261.9-300.8,583.1-622c536.1-538.1,583.1-591.3,583.1-654.7c0-65.5-69.6-139.1-973.9-1045.5c-802.1-802.1-971.9-982.1-955.5-1008.7c49.1-88,374.4-325.3,589.3-431.7c466.5-229.2,961.7-284.4,1460.9-161.6l130.9,32.7l2764.2-2762.2c2553.5-2553.5,2774.5-2768.3,2893.2-2825.6c71.6-32.7,194.4-71.6,272.1-85.9c397-71.6,830.7,153.5,1010.8,521.8c141.2,290.5,141.2,585.2-2,871.6c-65.5,128.9-270.1,337.6-2823.6,2893.1l-2754,2754l32.7,126.9c182.1,730.4-36.8,1499.8-572.9,2029.7c-366.2,360.1-867.5,575-1387.2,593.4C2162.5,5014.4,2027.4,5014.4,1988.6,5010.3z M3398.3,2741.2c266-263.9,294.6-298.7,292.6-362.2c-2-75.7-63.4-139.1-133-139.1c-63.4,0-669.1,607.7-669.1,671.1c0,26.6,22.5,69.6,53.2,98.2C3025.9,3095.2,3073,3066.5,3398.3,2741.2z M2974.8,2327.9c325.3-323.3,349.9-368.3,261.9-456.3s-130.9-61.4-454.2,259.9c-253.7,251.7-302.8,313-302.8,362.1c0,79.8,53.2,135,130.9,135C2663.8,2628.7,2717,2585.7,2974.8,2327.9z M2555.3,1908.5c210.7-210.7,313-327.4,313-356c0-71.6-63.4-133-139.1-135c-63.4-2-98.2,26.6-362.2,292.6c-325.3,325.3-354,372.4-268,456.3C2191.1,2260.4,2219.8,2244,2555.3,1908.5z M8930.9-3237.4c165.7-114.6,229.2-360.1,139.1-534c-188.2-366.3-744.7-272.1-791.8,130.9c-22.5,186.2,75.7,360.1,247.6,442C8644.5-3143.3,8822.5-3159.7,8930.9-3237.4z"/><path d="M241.2,3625.1C155.3,3539.2,98,3242.5,100,2894.7c0-251.7,8.2-327.4,55.2-501.3c47.1-184.2,208.7-556.5,280.3-650.6c26.6-32.7,71.6,6.1,495.1,431.7l464.5,464.5l-517.7,517.7c-284.4,282.4-534,515.6-552.4,515.6C304.7,3672.2,267.8,3651.7,241.2,3625.1z"/></g></g>
</svg>